<?xml version="1.0" encoding="UTF-8"?>
<svg version="1.1" xmlns="http://www.w3.org/2000/svg" width="48" height="48">
<path d="M0 0 C5.21551542 3.22202953 9.51319317 8.7895795 11.4375 14.5625 C12.71460177 30.79993679 12.71460177 30.79993679 8.0703125 37.7265625 C3.5628976 42.79470844 -1.18590091 46.33338705 -8.07421875 46.80078125 C-23.27451389 47.21100872 -23.27451389 47.21100872 -28.5625 42.5625 C-35.6352762 34.8795235 -37.11965446 28.8089038 -36.8984375 18.59375 C-36.54280141 12.24520486 -34.21755727 7.99027611 -29.5546875 3.7265625 C-21.75309913 -2.40531323 -9.3601249 -4.06961952 0 0 Z " fill="#010101" transform="translate(36.5625,1.4375)"/>
<path d="M0 0 C1.65 0 3.3 0 5 0 C6.92626735 2.00151216 8.42398169 3.81323115 10 6.0625 C10.43425293 6.65724121 10.86850586 7.25198242 11.31591797 7.86474609 C12.17154131 9.04014462 13.02055881 10.22038546 13.86230469 11.40576172 C14.80448226 12.72602343 15.77732448 14.02434092 16.7578125 15.31640625 C20 19.60535714 20 19.60535714 20 23 C16.9618161 21.67435047 15.21054802 20.37095575 13.203125 17.7421875 C12.47802734 16.80439453 12.47802734 16.80439453 11.73828125 15.84765625 C11.00158203 14.87119141 11.00158203 14.87119141 10.25 13.875 C9.49009766 12.88693359 9.49009766 12.88693359 8.71484375 11.87890625 C7.46969142 10.25785888 6.23391431 8.62961787 5 7 C4.67 11.29 4.34 15.58 4 20 C2.68 20 1.36 20 0 20 C0 13.4 0 6.8 0 0 Z " fill="#D4D4D4" transform="translate(14,14)"/>
<path d="M0 0 C0.99 0 1.98 0 3 0 C3 2.97 3 5.94 3 9 C2.01 9 1.02 9 0 9 C0 6.03 0 3.06 0 0 Z " fill="#9E9E9E" transform="translate(31,14)"/>
<path d="M0 0 C1.65 1.65 3.3 3.3 5 5 C4.67 5.99 4.34 6.98 4 8 C0.26360784 6.75453595 -0.18756513 5.36595047 -2 2 C-1.34 2 -0.68 2 0 2 C0 1.34 0 0.68 0 0 Z " fill="#404040" transform="translate(34,35)"/>
<path d="M0 0 C2 1.8125 2 1.8125 4 4 C4 4.99 4 5.98 4 7 C0.83884224 5.63016497 0.0072908 5.0109362 -2 2 C-1.34 2 -0.68 2 0 2 C0 1.34 0 0.68 0 0 Z " fill="#ACACAC" transform="translate(30,30)"/>
<path d="M0 0 C0.33 0 0.66 0 1 0 C1 2.97 1 5.94 1 9 C1.99 9 2.98 9 4 9 C4 9.99 4 10.98 4 12 C3.01 12 2.02 12 1 12 C-0.26237731 9.47524538 -0.09856404 7.68799534 -0.0625 4.875 C-0.05347656 3.96492188 -0.04445313 3.05484375 -0.03515625 2.1171875 C-0.02355469 1.41851562 -0.01195313 0.71984375 0 0 Z " fill="#3E3E3E" transform="translate(30,14)"/>
</svg>
